<mxfile host="app.diagrams.net" agent="Mozilla/5.0 (X11; Ubuntu; Linux x86_64; rv:127.0) Gecko/20100101 Firefox/127.0" version="24.7.10">
  <diagram name="Página-1" id="pTsllFE2ss0OJUp7zo2t">
    <mxGraphModel dx="1195" dy="660" grid="1" gridSize="10" guides="1" tooltips="1" connect="1" arrows="1" fold="1" page="1" pageScale="1" pageWidth="827" pageHeight="1169" math="0" shadow="0">
      <root>
        <mxCell id="0" />
        <mxCell id="1" parent="0" />
        <mxCell id="MguHC6k_voEIsx5IkF6q-2" value="N1" style="html=1;strokeWidth=2;shape=manualInput;whiteSpace=wrap;rounded=1;size=26;arcSize=11;" vertex="1" parent="1">
          <mxGeometry x="364" y="90" width="100" height="60" as="geometry" />
        </mxCell>
        <mxCell id="MguHC6k_voEIsx5IkF6q-21" style="edgeStyle=orthogonalEdgeStyle;rounded=0;orthogonalLoop=1;jettySize=auto;html=1;exitX=0.5;exitY=1;exitDx=0;exitDy=0;entryX=0.5;entryY=0;entryDx=0;entryDy=0;" edge="1" parent="1" source="MguHC6k_voEIsx5IkF6q-3" target="MguHC6k_voEIsx5IkF6q-6">
          <mxGeometry relative="1" as="geometry" />
        </mxCell>
        <mxCell id="MguHC6k_voEIsx5IkF6q-3" value="&lt;div&gt;N2&lt;/div&gt;" style="html=1;strokeWidth=2;shape=manualInput;whiteSpace=wrap;rounded=1;size=26;arcSize=11;" vertex="1" parent="1">
          <mxGeometry x="364" y="190" width="100" height="60" as="geometry" />
        </mxCell>
        <mxCell id="MguHC6k_voEIsx5IkF6q-18" style="edgeStyle=orthogonalEdgeStyle;rounded=0;orthogonalLoop=1;jettySize=auto;html=1;exitX=0.5;exitY=1;exitDx=0;exitDy=0;exitPerimeter=0;entryX=0.498;entryY=0.211;entryDx=0;entryDy=0;entryPerimeter=0;" edge="1" parent="1" source="MguHC6k_voEIsx5IkF6q-5" target="MguHC6k_voEIsx5IkF6q-2">
          <mxGeometry relative="1" as="geometry" />
        </mxCell>
        <mxCell id="MguHC6k_voEIsx5IkF6q-5" value="&lt;div style=&quot;font-size: 13px;&quot;&gt;&lt;font style=&quot;font-size: 36px;&quot;&gt;Início&lt;/font&gt;&lt;/div&gt;" style="strokeWidth=2;html=1;shape=mxgraph.flowchart.terminator;whiteSpace=wrap;" vertex="1" parent="1">
          <mxGeometry x="364" y="10" width="100" height="60" as="geometry" />
        </mxCell>
        <mxCell id="MguHC6k_voEIsx5IkF6q-22" value="" style="edgeStyle=orthogonalEdgeStyle;rounded=0;orthogonalLoop=1;jettySize=auto;html=1;" edge="1" parent="1" source="MguHC6k_voEIsx5IkF6q-6" target="MguHC6k_voEIsx5IkF6q-10">
          <mxGeometry relative="1" as="geometry" />
        </mxCell>
        <mxCell id="MguHC6k_voEIsx5IkF6q-6" value="M = (N1+N2)/2" style="rounded=1;whiteSpace=wrap;html=1;absoluteArcSize=1;arcSize=14;strokeWidth=2;" vertex="1" parent="1">
          <mxGeometry x="364" y="290" width="100" height="90" as="geometry" />
        </mxCell>
        <mxCell id="MguHC6k_voEIsx5IkF6q-10" value="M &amp;gt; 7" style="strokeWidth=2;html=1;shape=mxgraph.flowchart.decision;whiteSpace=wrap;" vertex="1" parent="1">
          <mxGeometry x="364" y="420" width="100" height="100" as="geometry" />
        </mxCell>
        <mxCell id="MguHC6k_voEIsx5IkF6q-11" value="&quot;Reprovado!&quot;" style="strokeWidth=2;html=1;shape=mxgraph.flowchart.display;whiteSpace=wrap;" vertex="1" parent="1">
          <mxGeometry x="464" y="500" width="100" height="60" as="geometry" />
        </mxCell>
        <mxCell id="MguHC6k_voEIsx5IkF6q-12" value="&quot;Aprovado!&quot;" style="strokeWidth=2;html=1;shape=mxgraph.flowchart.display;whiteSpace=wrap;" vertex="1" parent="1">
          <mxGeometry x="264" y="500" width="100" height="60" as="geometry" />
        </mxCell>
        <mxCell id="MguHC6k_voEIsx5IkF6q-13" style="edgeStyle=orthogonalEdgeStyle;rounded=0;orthogonalLoop=1;jettySize=auto;html=1;exitX=1;exitY=0.5;exitDx=0;exitDy=0;exitPerimeter=0;entryX=0.573;entryY=0.003;entryDx=0;entryDy=0;entryPerimeter=0;" edge="1" parent="1" source="MguHC6k_voEIsx5IkF6q-10" target="MguHC6k_voEIsx5IkF6q-11">
          <mxGeometry relative="1" as="geometry" />
        </mxCell>
        <mxCell id="MguHC6k_voEIsx5IkF6q-14" style="edgeStyle=orthogonalEdgeStyle;rounded=0;orthogonalLoop=1;jettySize=auto;html=1;exitX=0;exitY=0.5;exitDx=0;exitDy=0;exitPerimeter=0;entryX=0.56;entryY=-0.031;entryDx=0;entryDy=0;entryPerimeter=0;" edge="1" parent="1" source="MguHC6k_voEIsx5IkF6q-10" target="MguHC6k_voEIsx5IkF6q-12">
          <mxGeometry relative="1" as="geometry" />
        </mxCell>
        <mxCell id="MguHC6k_voEIsx5IkF6q-24" value="&lt;font style=&quot;font-size: 30px;&quot;&gt;Final&lt;/font&gt;" style="strokeWidth=2;html=1;shape=mxgraph.flowchart.terminator;whiteSpace=wrap;" vertex="1" parent="1">
          <mxGeometry x="364" y="560" width="100" height="60" as="geometry" />
        </mxCell>
        <mxCell id="MguHC6k_voEIsx5IkF6q-25" style="edgeStyle=orthogonalEdgeStyle;rounded=0;orthogonalLoop=1;jettySize=auto;html=1;exitX=0.5;exitY=1;exitDx=0;exitDy=0;exitPerimeter=0;entryX=1;entryY=0.5;entryDx=0;entryDy=0;entryPerimeter=0;" edge="1" parent="1" source="MguHC6k_voEIsx5IkF6q-11" target="MguHC6k_voEIsx5IkF6q-24">
          <mxGeometry relative="1" as="geometry" />
        </mxCell>
        <mxCell id="MguHC6k_voEIsx5IkF6q-26" style="edgeStyle=orthogonalEdgeStyle;rounded=0;orthogonalLoop=1;jettySize=auto;html=1;exitX=0.5;exitY=1;exitDx=0;exitDy=0;exitPerimeter=0;entryX=0;entryY=0.5;entryDx=0;entryDy=0;entryPerimeter=0;" edge="1" parent="1" source="MguHC6k_voEIsx5IkF6q-12" target="MguHC6k_voEIsx5IkF6q-24">
          <mxGeometry relative="1" as="geometry" />
        </mxCell>
        <mxCell id="MguHC6k_voEIsx5IkF6q-29" style="edgeStyle=orthogonalEdgeStyle;rounded=0;orthogonalLoop=1;jettySize=auto;html=1;entryX=0.499;entryY=0.204;entryDx=0;entryDy=0;entryPerimeter=0;" edge="1" parent="1" source="MguHC6k_voEIsx5IkF6q-2" target="MguHC6k_voEIsx5IkF6q-3">
          <mxGeometry relative="1" as="geometry" />
        </mxCell>
      </root>
    </mxGraphModel>
  </diagram>
</mxfile>
